<svg version="1.2" xmlns="http://www.w3.org/2000/svg" viewBox="0 0 20 20" width="20" height="20">
	<title>discord-icon-svgrepo-com(1)-svg</title>
	<style>
		.s0 { fill: #5865f2 } 
	</style>
	<g>
		<path fill-rule="evenodd" class="s0" d="m19.9 15.1c-1.7 1.3-3.4 2.1-5 2.6q-0.7-0.9-1.1-1.8 0.9-0.3 1.7-0.8-0.2-0.2-0.4-0.4c-3.3 1.6-6.9 1.6-10.2 0q-0.2 0.2-0.4 0.4 0.8 0.5 1.7 0.8-0.4 0.9-1.1 1.8c-1.6-0.5-3.3-1.3-5-2.6-0.4-3.8 0.3-7.6 3-11.5q1.9-1 4.1-1.3c0.2 0.3 0.4 0.7 0.5 1q2.3-0.3 4.6 0c0.1-0.3 0.3-0.7 0.5-1q2.2 0.3 4.1 1.2c2.3 3.4 3.4 7.2 3 11.6zm-11.4-4.4c0-1.1-0.8-2-1.8-2-1 0-1.8 0.9-1.8 2 0 1.2 0.8 2.1 1.8 2.1 1 0 1.8-0.9 1.8-2.1zm6.6 0c0-1.1-0.8-2-1.8-2-1 0-1.8 0.9-1.8 2 0 1.2 0.8 2.1 1.8 2.1 1 0 1.8-0.9 1.8-2.1z"/>
	</g>
</svg>