<svg version="1.2" xmlns="http://www.w3.org/2000/svg" viewBox="0 0 100 100" width="100" height="100">
	<title>Tik-Tok-Logo-08-svg</title>
	<style>
		.s0 { fill: #020202 } 
		.s1 { fill: #ee2353 } 
		.s2 { fill: #ffffff } 
		.s3 { fill: #6bcad0 } 
	</style>
	<g>
		<path class="s0" d="m67.3 27.1q-0.2-0.3-0.5-0.6 0.3 0.3 0.5 0.6z"/>
		<path class="s0" d="m44.8 71.5q-0.2-0.1-0.5-0.2 0.2 0.1 0.5 0.2z"/>
		<path class="s0" d="m65.4 24.2q0.6 1.3 1.4 2.3-0.8-1.1-1.4-2.3z"/>
		<path class="s0" d="m43.8 71.1q-0.2-0.1-0.5-0.2 0.3 0.1 0.5 0.2z"/>
		<path class="s0" d="m44.3 71.3q-0.2-0.1-0.5-0.2 0.3 0.1 0.5 0.2z"/>
		<path class="s0" d="m47.2 71.8c4.7 0 8.5-3.6 9-8.1-0.5 4.5-4.3 8.1-9 8.1z"/>
		<path class="s0" d="m42.4 70.4q0.4 0.2 0.7 0.4-0.3-0.2-0.7-0.4z"/>
		<path class="s0" d="m78.7 34.7q-1.4-0.3-2.6-0.8 1.2 0.5 2.6 0.8z"/>
		<path class="s0" d="m67.8 27.7q-0.2-0.3-0.5-0.6 0.3 0.3 0.5 0.6z"/>
		<path class="s0" d="m76 33.8q-0.2 0-0.4-0.1 0.2 0.1 0.4 0.1z"/>
		<path class="s0" d="m74.4 33.1q0-0.1-0.1-0.1 0.1 0 0.1 0.1z"/>
		<path class="s0" d="m75.4 33.6q-0.1-0.1-0.2-0.1 0.1 0 0.2 0.1z"/>
		<path class="s0" d="m74.9 33.3q-0.1 0-0.1-0.1 0 0.1 0.1 0.1z"/>
		<path class="s0" d="m46.5 51.4q0.1 0 0.1 0.1 0 0-0.1-0.1z"/>
		<path class="s0" d="m46.8 51.5v-8.5z"/>
		<path class="s0" d="m45.1 51.2q0.1 0 0.1 0 0 0-0.1 0z"/>
		<path class="s0" d="m46.1 51.3q0.1 0.1 0.2 0.1-0.1 0-0.2-0.1z"/>
		<path class="s0" d="m45.5 51.2q0 0 0.1 0-0.1 0-0.1 0z"/>
		<path class="s0" d="m45.8 51.3q0.1 0 0.2 0-0.1 0-0.2 0z"/>
		<path class="s0" d="m67 41z"/>
		<path fill-rule="evenodd" class="s0" d="m50 100c-27.6 0-50-22.3-50-50 0-27.6 22.4-50 50-50 27.7 0 50 22.4 50 50 0 27.7-22.3 50-50 50zm31.9-64.9q-1.6-0.1-3.2-0.4v-2.3c-2.8 0.1-5.5-0.7-7.9-2.2q-1.6-1.1-3-2.5 1.4 1.5 3 2.5c-2.1-2.4-3.5-5.4-3.8-8.7v-1.4h-3q0.4 2.2 1.4 4.1c-0.7-1.3-1.1-2.7-1.4-4.1q-0.1-0.6-0.2-1.2v-1.4h-10.7v42.7c0 4.9-4.1 9-9 9-1.5 0-2.9-0.4-4.1-1-2.9-1.5-5-4.5-5-8.1 0-5 4.1-9 9.1-9-5 0-9.1 4.1-9.1 9 0 3.6 2 6.6 5 8.1 0.7 0.9 1.5 1.6 2.4 2.2q-1.4-0.9-2.4-2.2c-1.2-1.6-1.8-3.5-1.8-5.5 0-5 4-9 9-9q1.4 0 2.7 0.4v-10.9q-1.5-0.2-3.1-0.2v-2.4q-1.4-0.2-2.7-0.2c-10.9 0-19.8 8.8-19.8 19.8 0 6.8 3.5 12.8 8.8 16.4 3.6 3.6 8.6 5.9 14.1 5.9 10.9 0 19.8-8.8 19.8-19.8v-21.8c4.2 3.1 9.3 4.8 14.9 4.8z"/>
		<path class="s0" d="m44.8 51.1q0 0 0 0 0 0 0 0z"/>
		<path class="s1" d="m67.3 27.1q0.3 0.3 0.5 0.6 1.4 1.4 3 2.5c-2.1-2.4-3.5-5.4-3.8-8.7v-1.4h-3c0.3 1.4 0.7 2.8 1.4 4.1q0.6 1.3 1.4 2.3 0.3 0.3 0.5 0.6z"/>
		<path class="s1" d="m46.8 51.5q-0.1 0-0.2 0 0-0.1-0.1-0.1-0.1 0-0.1 0-0.2 0-0.3-0.1 0 0-0.1 0-0.1 0-0.2 0-0.1-0.1-0.2-0.1 0 0-0.1 0-0.1 0-0.3 0 0 0-0.1 0-0.1 0-0.3 0 0 0 0 0-0.4-0.1-0.7-0.1c-5 0-9.1 4.1-9.1 9.1 0 3.5 2.1 6.6 5 8-1.2-1.5-1.8-3.5-1.8-5.4 0-5 4-9.1 9-9.1q1.4 0 2.7 0.4v-10.9q-1.5-0.2-3.1-0.2v8.5z"/>
		<path class="s1" d="m78.7 43.1c-3.9 0-7.7-0.9-11.1-2.5q-0.9-0.4-1.7-0.9-0.4-0.3-0.9-0.5-0.6-0.4-1.2-0.8v21.8c0 10.9-8.8 19.7-19.7 19.7-4.1 0-7.9-1.2-11-3.3 3.6 3.6 8.6 5.9 14.1 5.9 10.9 0 19.8-8.8 19.8-19.8v-21.7c4.2 3 9.3 4.7 14.9 4.7v-10.6q-1.6 0-3.2-0.4v8.4z"/>
		<path class="s2" d="m44.1 79.9c10.9 0 19.7-8.8 19.7-19.7v-21.8q0.6 0.4 1.3 0.8 0.4 0.2 0.8 0.5 0.8 0.5 1.7 0.9c3.4 1.6 7.2 2.5 11.2 2.5v-8.4q-1.5-0.3-2.7-0.8-0.1 0-0.1-0.1-0.2 0-0.4-0.1-0.1-0.1-0.1-0.1-0.2-0.1-0.3-0.1-0.1-0.1-0.3-0.2-0.1 0-0.1-0.1-0.2 0-0.4-0.1 0-0.1 0-0.1-1.8-1-3.3-2.6-0.1-0.1-0.2-0.2-1.7-1-3-2.5-0.3-0.2-0.6-0.5-0.2-0.3-0.4-0.7-0.9-1-1.5-2.3-1-1.9-1.4-4.1h-7.8v42.7q0 0.4 0 0.9c-0.5 4.5-4.3 8.1-9 8.1q-1.3 0-2.4-0.3-0.2-0.1-0.5-0.2-0.2-0.1-0.5-0.2-0.2-0.1-0.5-0.2-0.1 0-0.2-0.1-0.3-0.2-0.7-0.4c-0.9-0.6-1.7-1.3-2.4-2.2-3-1.5-5-4.5-5-8.1 0-4.9 4.1-9 9.1-9q0.3 0 0.7 0 0 0 0 0 0.2 0 0.3 0.1 0.1 0 0.1 0 0.1 0 0.3 0 0 0 0.1 0 0.1 0 0.2 0 0.1 0.1 0.2 0.1 0.1 0 0.1 0 0.1 0 0.2 0.1 0.1 0 0.2 0 0 0 0.1 0 0.1 0.1 0.2 0.1v-8.5c-10.7 0.2-19.4 9-19.4 19.7 0 5.4 2.2 10.3 5.7 13.8 3.1 2.2 6.9 3.4 11 3.4z"/>
		<path class="s2" d="m63.8 60.2c0 10.9-8.8 19.7-19.7 19.7-4.1 0-7.9-1.2-11-3.3 3.1 2.1 6.9 3.3 11 3.3 10.9 0 19.7-8.8 19.7-19.7z"/>
		<path class="s2" d="m46 51.3q0.1 0 0.1 0 0 0-0.1 0z"/>
		<path class="s2" d="m46.8 51.5q-0.1 0-0.2 0 0.1 0 0.2 0z"/>
		<path class="s2" d="m46.3 51.4q0.1 0 0.2 0-0.1 0-0.2 0z"/>
		<path class="s2" d="m65.9 39.7q-0.4-0.3-0.8-0.5 0.4 0.2 0.8 0.5z"/>
		<path class="s2" d="m45.6 51.2q0.1 0 0.2 0.1-0.1 0-0.2-0.1z"/>
		<path class="s2" d="m67.6 40.6q-0.9-0.4-1.7-0.9 0.8 0.5 1.7 0.9z"/>
		<path class="s2" d="m78.7 43.1c-3.9 0-7.7-0.9-11.1-2.5 3.4 1.6 7.2 2.5 11.1 2.5z"/>
		<path class="s2" d="m45.2 51.2q0.1 0 0.3 0-0.1 0-0.3 0z"/>
		<path class="s2" d="m44.8 51.1q0.2 0 0.3 0.1-0.1-0.1-0.3-0.1z"/>
		<path class="s2" d="m44.1 51.1q0.3 0 0.7 0-0.4 0-0.7 0z"/>
		<path class="s3" d="m43.3 70.9q0.3 0.1 0.5 0.2 0.2 0.1 0.5 0.2 0.2 0.1 0.5 0.2 1.1 0.3 2.4 0.3c4.7 0 8.5-3.6 9-8.1q0-0.5 0-0.9v-42.7h7.8q-0.1-0.6-0.1-1.2v-1.4h-10.8v42.7c0 4.9-4 9-9 9-1.5 0-2.9-0.4-4.1-1q1 1.3 2.4 2.2 0.4 0.2 0.7 0.4 0.1 0.1 0.2 0.1z"/>
		<path class="s3" d="m46.8 43v-2.4q-1.3-0.2-2.7-0.2c-10.9 0-19.8 8.8-19.8 19.8 0 6.8 3.5 12.8 8.8 16.4-3.5-3.6-5.6-8.5-5.6-13.9 0-10.7 8.6-19.5 19.3-19.7z"/>
		<path class="s3" d="m74.3 33q0.1 0 0.1 0.1 0.2 0 0.3 0.1 0.1 0.1 0.2 0.1 0.1 0.1 0.3 0.1 0.1 0.1 0.2 0.2 0.1 0 0.2 0.1 0.2 0 0.4 0.1 0 0 0 0.1 1.3 0.5 2.7 0.8v-2.3c-2.8 0-5.5-0.8-7.9-2.2q0.1 0.1 0.3 0.2 1.4 1.5 3.2 2.6z"/>
		<path class="s3" d="m76.1 33.9q-0.1-0.1-0.1-0.1 0 0 0.1 0.1z"/>
		<path class="s3" d="m75.6 33.7q-0.1-0.1-0.1-0.1 0 0 0.1 0.1z"/>
		<path class="s3" d="m74.7 33.2q-0.1-0.1-0.3-0.1 0.2 0 0.3 0.1z"/>
		<path class="s3" d="m75.2 33.5q-0.1-0.1-0.3-0.2 0.1 0.1 0.3 0.2z"/>
		<path class="s3" d="m27.5 62.8c0-10.8 8.6-19.6 19.3-19.8-10.7 0.2-19.3 9-19.3 19.8 0 5.3 2.1 10.2 5.6 13.8-3.5-3.6-5.6-8.5-5.6-13.8z"/>
		<path class="s3" d="m74.3 33c-1.2-0.7-2.3-1.6-3.2-2.6q1.4 1.5 3.2 2.6z"/>
	</g>
</svg>